<svg width="36" height="36" viewBox="0 0 36 36" class="fill-white hover:fill-[--primary-color]" xmlns="http://www.w3.org/2000/svg"><g clip-path="url(#a)"><path d="M33.335 0H2.658C1.188 0 0 1.16 0 2.595v30.803C0 34.833 1.188 36 2.658 36h30.677C34.805 36 36 34.833 36 33.406V2.595C36 1.16 34.805 0 33.335 0ZM10.681 30.677H5.337V13.493h5.344v17.184ZM8.009 11.152a3.095 3.095 0 0 1-3.101-3.094 3.095 3.095 0 0 1 3.1-3.094 3.094 3.094 0 0 1 0 6.188Zm22.668 19.525h-5.336v-8.353c0-1.99-.036-4.556-2.778-4.556-2.777 0-3.199 2.173-3.199 4.416v8.493h-5.33V13.493h5.12v2.348h.07c.71-1.35 2.453-2.777 5.048-2.777 5.407 0 6.405 3.558 6.405 8.184v9.43Z"></path></g><defs><clipPath id="a"><path d="M0 0h36v36H0z"></path></clipPath></defs></svg>